HIERARCHY
ROOT Hips
{
	OFFSET 0.000000 0.000000 0.000000
	CHANNELS 6 Xposition Yposition Zposition Xrotation Yrotation Zrotation
	JOINT Spine
	{
		OFFSET 0.000000 0.042231 0.063346
		CHANNELS 3 Xrotation Yrotation Zrotation
		JOINT Spine1
		{
			OFFSET 0.000000 0.014667 0.083179
			CHANNELS 3 Xrotation Yrotation Zrotation
			JOINT Spine2
			{
				OFFSET 0.000000 0.007361 0.084141
				CHANNELS 3 Xrotation Yrotation Zrotation
				JOINT Spine3
				{
					OFFSET 0.000000 0.000000 0.084462
					CHANNELS 3 Xrotation Yrotation Zrotation
					JOINT Neck
					{
						OFFSET 0.000000 -0.031673 0.221713
						CHANNELS 3 Xrotation Yrotation Zrotation
						JOINT Head
						{
							OFFSET 0.000000 -0.020167 0.114371
							CHANNELS 3 Xrotation Yrotation Zrotation
							End Site
							{
								OFFSET 0.000000 0.000000 0.000000
							}
						}
					}
					JOINT RightShoulder
					{
						OFFSET -0.029161 -0.048602 0.157471
						CHANNELS 3 Xrotation Yrotation Zrotation
						JOINT RightArm
						{
							OFFSET -0.144834 0.000000 0.000000
							CHANNELS 3 Xrotation Yrotation Zrotation
							JOINT RightForeArm
							{
								OFFSET -0.274949 0.000000 0.000000
								CHANNELS 3 Xrotation Yrotation Zrotation
								JOINT RightHand
								{
									OFFSET -0.254725 0.000000 0.000000
									CHANNELS 3 Xrotation Yrotation Zrotation
									JOINT RightHandEnd
									{
										OFFSET -0.068160 0.000000 0.000000
										CHANNELS 3 Xrotation Yrotation Zrotation
										End Site
										{
											OFFSET 0.000000 0.000000 0.000000
										}
									}
									JOINT RightHandThumb1
									{
										OFFSET -0.027264 -0.045440 -0.018176
										CHANNELS 3 Xrotation Yrotation Zrotation
										End Site
										{
											OFFSET 0.000000 0.000000 0.000000
										}
									}
								}
							}
						}
					}
					JOINT LeftShoulder
					{
						OFFSET 0.029161 -0.048602 0.157471
						CHANNELS 3 Xrotation Yrotation Zrotation
						JOINT LeftArm
						{
							OFFSET 0.144834 0.000000 0.000000
							CHANNELS 3 Xrotation Yrotation Zrotation
							JOINT LeftForeArm
							{
								OFFSET 0.274949 0.000000 0.000000
								CHANNELS 3 Xrotation Yrotation Zrotation
								JOINT LeftHand
								{
									OFFSET 0.254725 0.000000 0.000000
									CHANNELS 3 Xrotation Yrotation Zrotation
									JOINT LeftHandEnd
									{
										OFFSET 0.068160 0.000000 0.000000
										CHANNELS 3 Xrotation Yrotation Zrotation
										End Site
										{
											OFFSET 0.000000 0.000000 0.000000
										}
									}
									JOINT LeftHandThumb1
									{
										OFFSET 0.027264 -0.045440 -0.018176
										CHANNELS 3 Xrotation Yrotation Zrotation
										End Site
										{
											OFFSET 0.000000 0.000000 0.000000
										}
									}
								}
							}
						}
					}
				}
			}
		}
	}
	JOINT RightUpLeg
	{
		OFFSET -0.086512 0.000000 -0.025273
		CHANNELS 3 Xrotation Yrotation Zrotation
		JOINT RightLeg
		{
			OFFSET 0.000000 0.000000 -0.433119
			CHANNELS 3 Xrotation Yrotation Zrotation
			JOINT RightFoot
			{
				OFFSET 0.000000 0.000000 -0.404688
				CHANNELS 3 Xrotation Yrotation Zrotation
				JOINT RightToeBase
				{
					OFFSET 0.000000 -0.126496 -0.046041
					CHANNELS 3 Xrotation Yrotation Zrotation
					End Site
					{
						OFFSET 0.000000 0.000000 0.000000
					}
				}
			}
		}
	}
	JOINT LeftUpLeg
	{
		OFFSET 0.086512 0.000000 -0.025273
		CHANNELS 3 Xrotation Yrotation Zrotation
		JOINT LeftLeg
		{
			OFFSET 0.000000 0.000000 -0.433119
			CHANNELS 3 Xrotation Yrotation Zrotation
			JOINT LeftFoot
			{
				OFFSET 0.000000 0.000000 -0.404688
				CHANNELS 3 Xrotation Yrotation Zrotation
				JOINT LeftToeBase
				{
					OFFSET 0.000000 -0.126496 -0.046041
					CHANNELS 3 Xrotation Yrotation Zrotation
					End Site
					{
						OFFSET 0.000000 0.000000 0.000000
					}
				}
			}
		}
	}
}
MOTION
Frames: 6
Frame Time: 0.033333
0.066893 2.212452 0.893854 3.046600 -0.203700 -0.307000 -2.354100 -0.481000 1.215900 -0.551600 -0.844100 0.080000 0.002300 -1.380900 1.456700 -0.237800 -0.698300 0.824300 2.750400 -1.407900 -1.201300 -2.849700 0.687000 -0.950000 -5.735700 17.224000 -2.139100 -16.021100 -18.532100 -6.751000 0.000000 0.000000 15.806000 -11.679700 21.912100 5.712900 0.000000 0.000000 0.000000 0.000000 0.000000 0.000000 0.101000 -11.813900 3.699700 -7.111500 20.343200 -1.563500 0.000000 0.000000 -14.082800 -7.802400 -31.994400 0.949300 0.000000 0.000000 0.000000 0.000000 0.000000 0.000000 -3.545900 -3.065100 -40.339200 0.786000 0.000000 0.000000 -8.517300 -4.326600 -1.150400 5.193500 0.000000 0.000000 -7.084300 -2.108300 19.258800 10.925200 0.000000 0.000000 -11.734300 6.285200 22.540300 2.342200 0.000000 0.000000 
0.068407 2.211733 0.894136 3.046700 -0.313000 -0.199000 -2.343900 -0.353600 1.154300 -0.533800 -0.836300 0.077100 -0.030500 -1.317500 1.435400 -0.255600 -0.683900 0.791900 2.722300 -1.591600 -1.133800 -2.858000 0.723700 -0.831300 -5.706600 17.275600 -2.129900 -15.847800 -18.736000 -6.795700 0.000000 0.000000 15.461200 -11.572700 21.908300 5.701900 0.000000 0.000000 0.000000 0.000000 0.000000 0.000000 0.109000 -11.825300 3.681400 -6.460200 20.263700 -1.909700 0.000000 0.000000 -13.870800 -7.516600 -31.848400 0.263000 0.000000 0.000000 0.000000 0.000000 0.000000 0.000000 -3.519100 -2.836300 -40.265100 0.844800 0.000000 0.000000 -8.587200 -4.274200 -1.336700 5.345600 0.000000 0.000000 -6.681200 -1.813200 19.912200 10.194000 0.000000 0.000000 -11.366700 6.307900 21.909800 2.323000 0.000000 0.000000 
0.071359 2.210478 0.894542 3.069500 -0.479000 -0.070400 -2.337400 -0.168500 1.049400 -0.526700 -0.831500 0.074200 -0.055200 -1.239800 1.425600 -0.271500 -0.670300 0.746200 2.628100 -1.797500 -0.978500 -2.886500 0.838800 -0.623500 -5.607300 17.395400 -2.117700 -15.649900 -18.983500 -6.863800 0.000000 0.000000 14.848200 -11.506100 21.934200 5.691400 0.000000 0.000000 0.000000 0.000000 0.000000 0.000000 0.104900 -11.804800 3.682600 -5.721000 20.187600 -2.309200 0.000000 0.000000 -13.651500 -7.111200 -31.727000 -0.466900 0.000000 0.000000 0.000000 0.000000 0.000000 0.000000 -3.501300 -2.446400 -40.162000 0.957100 0.000000 0.000000 -8.701200 -4.216400 -1.551300 5.541700 0.000000 0.000000 -5.957100 -1.324200 21.590100 8.854000 0.000000 0.000000 -10.676900 6.439600 20.257500 2.266300 0.000000 0.000000 
0.074905 2.209213 0.894890 3.161300 -0.635300 -0.027600 -2.367300 -0.015800 0.928700 -0.554000 -0.839500 0.071800 -0.051000 -1.206200 1.470500 -0.271900 -0.673900 0.726300 2.475100 -1.833300 -0.766600 -2.922600 1.028900 -0.407300 -5.481500 17.533100 -2.117700 -15.672800 -19.048900 -6.992500 0.000000 0.000000 14.376800 -11.640300 22.020000 5.669700 0.000000 0.000000 0.000000 0.000000 0.000000 0.000000 0.090000 -11.716900 3.746800 -5.580800 20.230700 -2.407300 0.000000 0.000000 -13.628600 -6.902800 -31.752900 -0.648300 0.000000 0.000000 0.000000 0.000000 0.000000 0.000000 -3.564800 -2.027900 -40.093500 1.087300 0.000000 0.000000 -8.784400 -4.231000 -1.629900 5.647300 0.000000 0.000000 -5.192100 -0.778600 23.844100 7.294000 0.000000 0.000000 -9.847800 6.746100 18.041100 2.125300 0.000000 0.000000 
0.078166 2.208291 0.895149 3.334200 -0.755000 -0.073500 -2.431000 0.080800 0.805500 -0.618000 -0.843100 0.073400 -0.036800 -1.223100 1.569200 -0.268000 -0.698400 0.741000 2.316700 -1.704900 -0.562400 -2.950400 1.233800 -0.222500 -5.425600 17.601900 -2.144600 -15.957900 -18.884400 -7.219200 0.000000 0.000000 14.394200 -11.893100 22.161400 5.621200 0.000000 0.000000 0.000000 0.000000 0.000000 0.000000 0.073100 -11.584300 3.860000 -6.003400 20.371700 -2.184300 0.000000 0.000000 -13.735900 -7.006600 -31.881300 -0.454300 0.000000 0.000000 0.000000 0.000000 0.000000 0.000000 -3.730200 -1.667400 -40.095800 1.198900 0.000000 0.000000 -8.780200 -4.358100 -1.566600 5.634200 0.000000 0.000000 -4.607600 -0.251700 25.537100 5.844100 0.000000 0.000000 -9.078200 7.101400 16.403400 1.913200 0.000000 0.000000 
0.080891 2.207631 0.895378 3.572900 -0.845400 -0.130300 -2.514600 0.163400 0.692200 -0.691500 -0.820000 0.075100 -0.052600 -1.245200 1.668800 -0.276100 -0.731900 0.770400 2.191300 -1.597900 -0.403900 -2.976300 1.387900 -0.035700 -5.465000 17.578100 -2.201000 -16.248500 -18.680200 -7.469400 0.000000 0.000000 14.772400 -12.018100 22.274000 5.568200 0.000000 0.000000 0.000000 0.000000 0.000000 0.000000 0.051000 -11.468600 3.965300 -6.366000 20.459400 -1.909200 0.000000 0.000000 -13.759700 -7.178000 -31.965000 -0.395100 0.000000 0.000000 0.000000 0.000000 0.000000 0.000000 -3.967200 -1.371000 -40.128100 1.280600 0.000000 0.000000 -8.713300 -4.537400 -1.494000 5.588500 0.000000 0.000000 -4.225500 0.237900 26.155600 4.583800 0.000000 0.000000 -8.446000 7.330300 15.843500 1.709700 0.000000 0.000000 
